<svg width="145" height="26" viewBox="0 0 145 26" fill="none" xmlns="http://www.w3.org/2000/svg">
<path fill-rule="evenodd" clip-rule="evenodd" d="M23.0011 2L31.9975 10L16 26L0 10L9.00067 2H23.0011ZM19.9955 8H12L9 11L16 18L23 11L19.9955 8Z" fill="#0052CC"/>
<path d="M51.639 23.62V17.509C51.303 17.971 50.855 18.377 50.295 18.727C49.749 19.077 49.035 19.252 48.153 19.252C47.173 19.252 46.298 19.014 45.528 18.538C44.758 18.062 44.149 17.411 43.701 16.585C43.253 15.759 43.029 14.821 43.029 13.771C43.029 12.721 43.253 11.79 43.701 10.978C44.149 10.152 44.758 9.508 45.528 9.046C46.298 8.57 47.173 8.332 48.153 8.332C48.937 8.332 49.623 8.479 50.211 8.773C50.799 9.067 51.275 9.48 51.639 10.012L51.933 8.584H54.327V23.62H51.639ZM48.72 16.9C49.588 16.9 50.295 16.613 50.841 16.039C51.401 15.451 51.681 14.702 51.681 13.792C51.681 12.882 51.401 12.14 50.841 11.566C50.295 10.978 49.588 10.684 48.72 10.684C47.866 10.684 47.159 10.971 46.599 11.545C46.039 12.119 45.759 12.861 45.759 13.771C45.759 14.681 46.039 15.43 46.599 16.018C47.159 16.606 47.866 16.9 48.72 16.9ZM60.9702 19.252C59.6682 19.252 58.6602 18.846 57.9462 18.034C57.2462 17.222 56.8962 16.032 56.8962 14.464V8.584H59.5632V14.212C59.5632 15.108 59.7452 15.794 60.1092 16.27C60.4732 16.746 61.0472 16.984 61.8312 16.984C62.5732 16.984 63.1822 16.718 63.6582 16.186C64.1482 15.654 64.3932 14.912 64.3932 13.96V8.584H67.0812V19H64.7082L64.4982 17.236C64.1762 17.852 63.7072 18.342 63.0912 18.706C62.4892 19.07 61.7822 19.252 60.9702 19.252ZM71.2896 6.967C70.7996 6.967 70.3936 6.82 70.0716 6.526C69.7636 6.232 69.6096 5.861 69.6096 5.413C69.6096 4.965 69.7636 4.601 70.0716 4.321C70.3936 4.027 70.7996 3.88 71.2896 3.88C71.7796 3.88 72.1786 4.027 72.4866 4.321C72.8086 4.601 72.9696 4.965 72.9696 5.413C72.9696 5.861 72.8086 6.232 72.4866 6.526C72.1786 6.82 71.7796 6.967 71.2896 6.967ZM69.9456 19V8.584H72.6336V19H69.9456ZM80.5422 19.252C79.4782 19.252 78.5402 19.021 77.7282 18.559C76.9162 18.097 76.2722 17.453 75.7962 16.627C75.3342 15.801 75.1032 14.856 75.1032 13.792C75.1032 12.728 75.3342 11.783 75.7962 10.957C76.2722 10.131 76.9162 9.487 77.7282 9.025C78.5402 8.563 79.4782 8.332 80.5422 8.332C81.8722 8.332 82.9922 8.682 83.9022 9.382C84.8122 10.068 85.3932 11.02 85.6452 12.238H82.8102C82.6702 11.734 82.3902 11.342 81.9702 11.062C81.5642 10.768 81.0812 10.621 80.5212 10.621C79.7792 10.621 79.1492 10.901 78.6312 11.461C78.1132 12.021 77.8542 12.798 77.8542 13.792C77.8542 14.786 78.1132 15.563 78.6312 16.123C79.1492 16.683 79.7792 16.963 80.5212 16.963C81.0812 16.963 81.5642 16.823 81.9702 16.543C82.3902 16.263 82.6702 15.864 82.8102 15.346H85.6452C85.3932 16.522 84.8122 17.467 83.9022 18.181C82.9922 18.895 81.8722 19.252 80.5422 19.252ZM88.031 19V3.88H90.719V12.805L94.415 8.584H97.607L93.344 13.33L98.3 19H94.94L90.719 13.771V19H88.031ZM99.9666 19V8.584H102.34L102.55 10.348C102.872 9.732 103.334 9.242 103.936 8.878C104.552 8.514 105.273 8.332 106.099 8.332C107.387 8.332 108.388 8.738 109.102 9.55C109.816 10.362 110.173 11.552 110.173 13.12V19H107.485V13.372C107.485 12.476 107.303 11.79 106.939 11.314C106.575 10.838 106.008 10.6 105.238 10.6C104.482 10.6 103.859 10.866 103.369 11.398C102.893 11.93 102.655 12.672 102.655 13.624V19H99.9666ZM117.741 19.252C116.733 19.252 115.823 19.021 115.011 18.559C114.213 18.097 113.576 17.46 113.1 16.648C112.638 15.822 112.407 14.87 112.407 13.792C112.407 12.714 112.645 11.769 113.121 10.957C113.597 10.131 114.234 9.487 115.032 9.025C115.844 8.563 116.754 8.332 117.762 8.332C118.756 8.332 119.652 8.563 120.45 9.025C121.262 9.487 121.899 10.131 122.361 10.957C122.837 11.769 123.075 12.714 123.075 13.792C123.075 14.87 122.837 15.822 122.361 16.648C121.899 17.46 121.262 18.097 120.45 18.559C119.638 19.021 118.735 19.252 117.741 19.252ZM117.741 16.921C118.441 16.921 119.05 16.662 119.568 16.144C120.086 15.612 120.345 14.828 120.345 13.792C120.345 12.756 120.086 11.979 119.568 11.461C119.05 10.929 118.448 10.663 117.762 10.663C117.048 10.663 116.432 10.929 115.914 11.461C115.41 11.979 115.158 12.756 115.158 13.792C115.158 14.828 115.41 15.612 115.914 16.144C116.432 16.662 117.041 16.921 117.741 16.921ZM129.709 19C128.617 19 127.742 18.734 127.084 18.202C126.426 17.67 126.097 16.725 126.097 15.367V10.831H124.312V8.584H126.097L126.412 5.791H128.785V8.584H131.599V10.831H128.785V15.388C128.785 15.892 128.89 16.242 129.1 16.438C129.324 16.62 129.702 16.711 130.234 16.711H131.536V19H129.709ZM138.701 19.252C137.651 19.252 136.72 19.028 135.908 18.58C135.096 18.132 134.459 17.502 133.997 16.69C133.535 15.878 133.304 14.94 133.304 13.876C133.304 12.798 133.528 11.839 133.976 10.999C134.438 10.159 135.068 9.508 135.866 9.046C136.678 8.57 137.63 8.332 138.722 8.332C139.744 8.332 140.647 8.556 141.431 9.004C142.215 9.452 142.824 10.068 143.258 10.852C143.706 11.622 143.93 12.483 143.93 13.435C143.93 13.589 143.923 13.75 143.909 13.918C143.909 14.086 143.902 14.261 143.888 14.443H135.971C136.027 15.255 136.307 15.892 136.811 16.354C137.329 16.816 137.952 17.047 138.68 17.047C139.226 17.047 139.681 16.928 140.045 16.69C140.423 16.438 140.703 16.116 140.885 15.724H143.615C143.419 16.382 143.09 16.984 142.628 17.53C142.18 18.062 141.62 18.482 140.948 18.79C140.29 19.098 139.541 19.252 138.701 19.252ZM138.722 10.516C138.064 10.516 137.483 10.705 136.979 11.083C136.475 11.447 136.153 12.007 136.013 12.763H141.2C141.158 12.077 140.906 11.531 140.444 11.125C139.982 10.719 139.408 10.516 138.722 10.516Z" fill="black"/>
</svg>
